<?xml version="1.0" encoding="iso-8859-1"?>
<!-- Uploaded to: SVG Repo, www.svgrepo.com, Generator: SVG Repo Mixer Tools -->
<svg fill="#000000" height="800px" width="800px" version="1.1" id="Capa_1" xmlns="http://www.w3.org/2000/svg" xmlns:xlink="http://www.w3.org/1999/xlink" 
	 viewBox="0 0 612 612" xml:space="preserve">
<g>
	<g id="Projector_2">
		<path d="M306,163.616c-78.637,0-142.384,63.747-142.384,142.384S227.363,448.384,306,448.384S448.384,384.637,448.384,306
			S384.637,163.616,306,163.616z M306,398.424c-51.045,0-92.424-41.38-92.424-92.424s41.38-92.424,92.424-92.424
			s92.424,41.38,92.424,92.424S357.045,398.424,306,398.424z"/>
		<path d="M179.786,196.09c-51.602,0-103.203,0-154.806,0C11.183,196.09,0,207.273,0,221.069c0,56.62,0,113.241,0,169.861
			c0,13.796,11.183,24.98,24.98,24.98c51.602,0,103.203,0,154.806,0C124.92,352.907,124.92,259.093,179.786,196.09z"/>
		<path d="M587.02,196.09c-51.602,0-103.203,0-154.806,0c54.864,63.004,54.864,156.817,0,219.82c51.602,0,103.203,0,154.806,0
			c13.796,0,24.98-11.183,24.98-24.98c0-56.62,0-113.241,0-169.861C612,207.273,600.817,196.09,587.02,196.09z M542.682,342.22
			c-20.004,0-36.22-16.217-36.22-36.22c0-20.004,16.217-36.22,36.22-36.22c20.004,0,36.22,16.217,36.22,36.22
			C578.902,326.004,562.685,342.22,542.682,342.22z"/>
		<path d="M280.734,243.466C289.156,264.31,297.578,285.156,306,306c-20.694-8.784-41.389-17.568-62.083-26.352
			c-12.572,29.618-2.472,63.993,24.125,82.102s62.282,14.909,85.232-7.644c22.95-22.553,26.772-58.176,9.13-85.084
			C344.761,242.112,310.568,231.412,280.734,243.466z"/>
	</g>
</g>
</svg>