<?xml version="1.0" encoding="iso-8859-1"?>
<!-- Uploaded to: SVG Repo, www.svgrepo.com, Generator: SVG Repo Mixer Tools -->
<svg fill="#000000" height="800px" width="800px" version="1.1" id="Layer_1" xmlns="http://www.w3.org/2000/svg" xmlns:xlink="http://www.w3.org/1999/xlink" 
	 viewBox="0 0 300 300" xml:space="preserve">
<g>
	<g>
		<g>
			<path d="M273.825,68.75H26.169C11.737,68.75,0,80.487,0,94.925v85.156c0,14.033,11.11,25.525,25,26.139V225
				c0,3.456,2.794,6.25,6.25,6.25h37.5c3.45,0,6.25-2.794,6.25-6.25v-18.75h150V225c0,3.456,2.794,6.25,6.25,6.25h37.5
				c3.456,0,6.25-2.794,6.25-6.25v-18.78c13.885-0.614,25-12.106,25-26.139V94.925C300,80.487,288.256,68.75,273.825,68.75z
				 M62.5,218.75h-25v-12.5h25V218.75z M262.5,218.75h-25v-12.5h25V218.75z M287.506,180.081c0,7.544-6.131,13.681-13.675,13.681
				h-4.833c-0.083-0.003-0.165-0.013-0.248-0.013h-37.5c-0.084,0-0.165,0.009-0.248,0.013H68.998
				c-0.083-0.003-0.165-0.013-0.248-0.013h-37.5c-0.084,0-0.165,0.009-0.248,0.013h-4.827c-7.55,0-13.675-6.138-13.675-13.681
				V94.925c0-7.544,6.138-13.675,13.669-13.675h247.662c7.544,0,13.669,6.144,13.675,13.675V180.081z"/>
			<path d="M231.25,87.5c-24.119,0-43.75,19.638-43.75,43.75c0,24.119,19.631,43.75,43.75,43.75S275,155.369,275,131.25
				C275,107.138,255.369,87.5,231.25,87.5z M231.25,162.5c-17.237,0-31.25-14.013-31.25-31.25c0-17.231,14.013-31.25,31.25-31.25
				c17.225,0,31.25,14.019,31.25,31.25S248.475,162.5,231.25,162.5z"/>
			<path d="M234.606,106.25c-3.456,0-6.25,2.794-6.25,6.25s2.794,6.25,6.25,6.25c3.444,0,6.25,2.8,6.25,6.25
				c0,3.456,2.794,6.25,6.25,6.25c3.456,0,6.25-2.794,6.25-6.25C253.356,114.662,244.944,106.25,234.606,106.25z"/>
			<path d="M43.75,93.75c-3.456,0-6.25,2.794-6.25,6.25v62.5c0,3.456,2.794,6.25,6.25,6.25c3.45,0,6.25-2.794,6.25-6.25V100
				C50,96.544,47.206,93.75,43.75,93.75z"/>
			<path d="M68.75,93.75c-3.456,0-6.25,2.794-6.25,6.25v62.5c0,3.456,2.794,6.25,6.25,6.25c3.45,0,6.25-2.794,6.25-6.25V100
				C75,96.544,72.206,93.75,68.75,93.75z"/>
			<path d="M93.75,93.75c-3.456,0-6.25,2.794-6.25,6.25v62.5c0,3.456,2.794,6.25,6.25,6.25c3.45,0,6.25-2.794,6.25-6.25V100
				C100,96.544,97.206,93.75,93.75,93.75z"/>
		</g>
	</g>
</g>
</svg>