<?xml version="1.0" encoding="iso-8859-1"?>
<!-- Uploaded to: SVG Repo, www.svgrepo.com, Generator: SVG Repo Mixer Tools -->
<svg height="800px" width="800px" version="1.1" id="Layer_1" xmlns="http://www.w3.org/2000/svg" xmlns:xlink="http://www.w3.org/1999/xlink" 
	 viewBox="0 0 512 512" xml:space="preserve">
<g>
	<path style="fill:#3C66B1;" d="M34.642,123.199V98.877c0-5.733,4.691-10.424,10.424-10.424H57.97h41h41.62
		c5.733,0,10.424,4.691,10.424,10.424v24.322H34.642V123.199z"/>
	<path style="fill:#3C66B1;" d="M185.429,118.972v-17.439v-6.341c0-3.721,3.017-6.739,6.739-6.739h30.707
		c3.721,0,6.739,3.017,6.739,6.739v6.341v17.439H185.429z"/>
</g>
<path style="fill:#C6C3CB;" d="M445.173,113.525h56.403c5.733,0,10.424,6.906,10.424,15.345v192.323
	c0,8.44-4.691,15.345-10.424,15.345h-56.403H237.055H185.14H10.424C4.691,336.538,0,329.632,0,321.193V128.87
	c0-8.44,4.691-15.345,10.424-15.345h267.941C278.365,113.525,445.173,113.525,445.173,113.525z"/>
<path style="opacity:0.28;fill:#2F2D30;enable-background:new    ;" d="M501.576,113.525h-40.934v156.31
	c0,8.44-4.691,15.345-10.424,15.345h-56.403H185.697h-51.914H0v36.013c0,8.44,4.691,15.345,10.424,15.345h174.716h51.915h208.118
	h56.403c5.733,0,10.424-6.906,10.424-15.345V128.87C512,120.43,507.309,113.525,501.576,113.525z"/>
<path style="fill:#57545C;" d="M361.648,76.695c62.175,0,112.577,50.402,112.577,112.576s-50.402,112.576-112.577,112.576
	s-112.576-50.402-112.576-112.576c0-44.157,25.423-82.377,62.432-100.82c1.634-0.814,3.291-1.59,4.969-2.327
	C316.472,86.125,338.716,76.695,361.648,76.695z"/>
<path style="fill:#77757E;" d="M331.944,119.571c9.305-3.426,19.161-6.046,29.703-6.046c41.834,0,75.746,33.913,75.746,75.746
	s-33.913,75.746-75.746,75.746s-75.746-33.913-75.746-75.746c0-23.786,10.964-45.012,28.114-58.898
	C314.015,130.373,324.827,122.191,331.944,119.571z"/>
<circle style="fill:#5D5D5D;" cx="361.652" cy="189.274" r="45.166"/>
<g>
	<polygon style="fill:#77757E;" points="117.44,336.538 18.672,435.305 0,416.633 80.095,336.538 	"/>
	<polygon style="fill:#77757E;" points="394.306,336.538 493.075,435.305 511.747,416.633 431.652,336.538 	"/>
</g>
<circle style="fill:#DFDFE2;" cx="377.913" cy="173.013" r="22.585"/>
<g>
	<path style="fill:#77757E;" d="M92.828,170.605l83.408-0.524c5.35-0.028,9.751,4.327,9.78,9.678l0,0
		c0.028,5.35-4.327,9.751-9.678,9.78l-121.609,0.634c-5.351,0.028-9.751-4.327-9.78-9.678l0,0c-0.028-5.351,4.327-9.751,9.678-9.78
		L92.828,170.605z"/>
	<path style="fill:#77757E;" d="M176.559,231.984L54.95,232.617c-5.351,0.028-9.751-4.327-9.78-9.678l0,0
		c-0.028-5.351,4.327-9.751,9.678-9.78l121.609-0.634c5.351-0.028,9.751,4.327,9.78,9.678l0,0
		C186.264,227.555,181.909,231.956,176.559,231.984z"/>
	<path style="fill:#77757E;" d="M176.779,274.428l-121.609,0.634c-5.351,0.028-9.751-4.327-9.78-9.678l0,0
		c-0.028-5.35,4.327-9.751,9.678-9.78l121.609-0.634c5.351-0.028,9.751,4.327,9.78,9.678l0,0
		C186.485,269.999,182.13,274.4,176.779,274.428z"/>
</g>
<path style="opacity:0.28;fill:#2F2D30;enable-background:new    ;" d="M414.39,89.797c8.36,15.734,13.103,33.683,13.103,52.742
	c0,62.175-50.402,112.577-112.577,112.577c-19.059,0-37.008-4.743-52.742-13.103c18.911,35.593,56.359,59.834,99.474,59.834
	c62.175,0,112.577-50.402,112.577-112.576C474.224,146.156,449.983,108.708,414.39,89.797z"/>
</svg>