<?xml version="1.0" encoding="iso-8859-1"?>
<!-- Uploaded to: SVG Repo, www.svgrepo.com, Generator: SVG Repo Mixer Tools -->
<svg fill="#000000" height="800px" width="800px" version="1.1" id="Layer_1" xmlns="http://www.w3.org/2000/svg" xmlns:xlink="http://www.w3.org/1999/xlink" 
	 viewBox="0 0 506.041 506.041" xml:space="preserve">
<g>
	<g>
		<g>
			<path d="M473.262,168.122l-44.51-6.135c-21.402-20.207-50.176-32.7-81.869-32.7c-22.622,0-43.716,6.434-61.764,17.399
				c-50.381-1.911-100.779,0.529-149.897,7.305L32.771,168.122C12.24,170.955-2.054,189.311,0.242,209.91l12.211,109.935
				c1.442,12.988,12.382,22.776,25.438,22.776h13.585l7.074,14.148c6.17,12.331,18.56,19.985,32.333,19.985
				c13.781,0,26.172-7.654,32.333-19.985l7.083-14.148h142.933c20.318,15.983,45.858,25.6,73.651,25.6
				c13.628,0,26.667-2.398,38.869-6.622c6.724,9.455,17.536,15.155,29.397,15.155c13.781,0,26.172-7.654,32.333-19.985l7.083-14.148
				h13.577c13.065,0,23.996-9.788,25.446-22.776l12.211-109.935C508.095,189.311,493.801,170.955,473.262,168.122z M176.216,291.42
				h-102.4c-4.71,0-8.533-3.814-8.533-8.533c0-4.719,3.823-8.533,8.533-8.533h102.4c4.719,0,8.533,3.814,8.533,8.533
				C184.749,287.606,180.935,291.42,176.216,291.42z M176.216,257.287h-102.4c-4.71,0-8.533-3.814-8.533-8.533
				s3.823-8.533,8.533-8.533h102.4c4.719,0,8.533,3.814,8.533,8.533S180.935,257.287,176.216,257.287z M176.216,223.154h-102.4
				c-4.71,0-8.533-3.814-8.533-8.533s3.823-8.533,8.533-8.533h102.4c4.719,0,8.533,3.814,8.533,8.533
				S180.935,223.154,176.216,223.154z M448.686,259.685c-0.12,1.143-0.358,2.244-0.521,3.371c-0.341,2.44-0.691,4.864-1.203,7.253
				c-0.307,1.408-0.708,2.765-1.067,4.147c-0.529,2.039-1.067,4.079-1.724,6.084c-0.495,1.527-1.084,3.021-1.655,4.523
				c-0.666,1.758-1.348,3.507-2.116,5.222c-0.708,1.604-1.485,3.174-2.278,4.727c-0.777,1.519-1.579,3.029-2.423,4.514
				c-0.93,1.604-1.886,3.191-2.893,4.745c-0.879,1.357-1.809,2.679-2.748,3.994c-1.109,1.536-2.219,3.072-3.405,4.548
				c-1.024,1.271-2.125,2.492-3.209,3.712c-1.237,1.399-2.449,2.807-3.755,4.139c-1.314,1.323-2.731,2.56-4.122,3.823
				c-3.448,3.132-7.057,6.093-10.906,8.738c-0.521,0.358-1.058,0.691-1.587,1.041c-2.031,1.34-4.113,2.603-6.238,3.797
				c-0.674,0.375-1.348,0.759-2.031,1.126c-2.372,1.254-4.787,2.423-7.262,3.499c-0.341,0.154-0.674,0.333-1.024,0.478
				c-12.194,5.137-25.583,7.987-39.637,7.987c-26.436,0-50.492-10.155-68.676-26.667c-1.391-1.263-2.807-2.5-4.122-3.823
				c-1.306-1.331-2.517-2.739-3.755-4.139c-1.092-1.22-2.185-2.441-3.209-3.712c-1.186-1.476-2.304-3.012-3.405-4.548
				c-0.947-1.314-1.877-2.637-2.756-3.994c-0.998-1.553-1.963-3.14-2.884-4.745c-0.845-1.485-1.647-2.995-2.423-4.514
				c-0.794-1.553-1.57-3.123-2.287-4.727c-0.759-1.715-1.442-3.465-2.108-5.222c-0.572-1.502-1.161-2.995-1.664-4.523
				c-0.648-2.005-1.186-4.045-1.715-6.084c-0.358-1.382-0.76-2.739-1.067-4.147c-0.512-2.389-0.862-4.813-1.203-7.253
				c-0.162-1.126-0.401-2.227-0.521-3.371c-0.384-3.61-0.606-7.253-0.606-10.931c0-4.011,0.299-7.97,0.751-11.895
				c0.145-1.246,0.375-2.466,0.572-3.695c0.41-2.671,0.896-5.316,1.519-7.927c0.324-1.391,0.674-2.765,1.058-4.13
				c0.7-2.492,1.519-4.941,2.398-7.356c0.461-1.263,0.879-2.543,1.382-3.78c1.408-3.422,2.961-6.775,4.727-10.027
				c0.444-0.819,0.99-1.587,1.459-2.398c1.459-2.517,2.995-4.983,4.668-7.364c0.794-1.126,1.638-2.21,2.475-3.302
				c1.613-2.125,3.311-4.19,5.103-6.187c0.785-0.879,1.562-1.758,2.372-2.611c5.521-5.751,11.733-10.94,18.628-15.386
				c15.966-10.291,34.918-16.341,55.287-16.341c52.48,0,95.812,39.697,101.675,90.641c0.051,0.461,0.154,0.904,0.205,1.365
				c0.341,3.422,0.521,6.886,0.521,10.394C449.283,252.432,449.07,256.075,448.686,259.685z"/>
			<path d="M346.886,171.955c-42.342,0-76.8,34.449-76.8,76.8s34.458,76.8,76.8,76.8s76.8-34.449,76.8-76.8
				S389.229,171.955,346.886,171.955z M346.886,223.155c-14.114,0-25.6,11.486-25.6,25.6c0,4.719-3.823,8.533-8.533,8.533
				s-8.533-3.814-8.533-8.533c0-23.526,19.14-42.667,42.667-42.667c4.71,0,8.533,3.814,8.533,8.533S351.597,223.155,346.886,223.155
				z"/>
		</g>
	</g>
</g>
</svg>