<?xml version="1.0" encoding="iso-8859-1"?>
<!-- Uploaded to: SVG Repo, www.svgrepo.com, Generator: SVG Repo Mixer Tools -->
<svg fill="#000000" height="800px" width="800px" version="1.1" id="Capa_1" xmlns="http://www.w3.org/2000/svg" xmlns:xlink="http://www.w3.org/1999/xlink" 
	 viewBox="0 0 512 512" xml:space="preserve">
<g>
	<g>
		<path d="M472.021,206.544L345.433,79.956v-59.78C345.433,9.033,336.399,0,325.257,0c-11.142,0-20.176,9.033-20.176,20.176v59.78
			l-87.082,87.083l-67.751,22.583c-6.634,2.211-11.649,7.7-13.257,14.505c-1.606,6.805,0.425,13.958,5.369,18.902l180.676,180.678
			c3.828,3.828,8.978,5.91,14.267,5.91c1.543,0,3.098-0.177,4.635-0.539c6.805-1.606,12.294-6.622,14.505-13.254l22.586-67.752
			l92.993-92.993c3.784-3.784,5.91-8.915,5.91-14.267C477.934,215.459,475.806,210.326,472.021,206.544z M347.129,302.904
			c-2.215,2.214-3.883,4.913-4.874,7.886l-13.768,41.299L193.979,217.582l41.299-13.766c2.971-0.99,5.672-2.66,7.886-4.874
			l61.918-61.919v53.498c0,11.142,9.033,20.176,20.176,20.176s20.176-9.033,20.176-20.176v-53.498l83.789,83.789L347.129,302.904z"
			/>
	</g>
</g>
<g>
	<g>
		<path d="M188.963,357.108c-7.879-7.879-20.653-7.879-28.534,0l-24.091,24.09c-7.879,7.878-7.879,20.652,0,28.532
			c3.94,3.941,9.102,5.91,14.267,5.91c5.162,0,10.327-1.97,14.266-5.91l24.091-24.09
			C196.841,377.762,196.841,364.989,188.963,357.108z"/>
	</g>
</g>
<g>
	<g>
		<path d="M102.423,278.926H54.244c-11.142,0-20.176,9.033-20.176,20.176c0,11.142,9.033,20.176,20.176,20.176h48.179
			c11.142,0,20.176-9.033,20.176-20.176S113.567,278.926,102.423,278.926z"/>
	</g>
</g>
<g>
	<g>
		<path d="M246.97,423.468C246.969,423.468,246.969,423.468,246.97,423.468c-11.143,0-20.177,9.032-20.177,20.174l-0.004,48.181
			c-0.001,11.142,9.031,20.176,20.174,20.177h0.001c11.142,0,20.174-9.032,20.176-20.174l0.004-48.181
			C267.145,432.503,258.113,423.47,246.97,423.468z"/>
	</g>
</g>
</svg>