<?xml version="1.0" encoding="iso-8859-1"?>
<!-- Uploaded to: SVG Repo, www.svgrepo.com, Generator: SVG Repo Mixer Tools -->
<svg fill="#000000" height="800px" width="800px" version="1.1" id="Layer_1" xmlns="http://www.w3.org/2000/svg" xmlns:xlink="http://www.w3.org/1999/xlink" 
	 viewBox="0 0 512 512" xml:space="preserve">
<g>
	<g>
		<g>
			<path d="M490.667,138.667H362.005c-17.771-13.227-39.531-21.333-63.339-21.333c-23.808,0-45.568,8.107-63.339,21.333H21.333
				C9.536,138.667,0,148.224,0,160v128c0,11.776,9.536,21.333,21.333,21.333v64c0,11.776,9.536,21.333,21.333,21.333h64
				c11.797,0,21.333-9.557,21.333-21.333v-64h107.328c17.771,13.227,39.531,21.333,63.339,21.333
				c23.808,0,45.568-8.107,63.339-21.333H384v64c0,11.776,9.536,21.333,21.333,21.333h64c11.797,0,21.333-9.557,21.333-21.333v-64
				c11.797,0,21.333-9.557,21.333-21.333V160C512,148.224,502.464,138.667,490.667,138.667z M201.045,266.667h-94.379h-64v-85.333
				h158.379C195.285,194.432,192,208.811,192,224S195.285,253.568,201.045,266.667z M469.333,266.667h-64h-9.045
				c5.76-13.099,9.045-27.477,9.045-42.667s-3.285-29.568-9.045-42.667h73.045V266.667z"/>
			<path d="M149.333,202.667h-64C73.536,202.667,64,212.224,64,224s9.536,21.333,21.333,21.333h64
				c11.797,0,21.333-9.557,21.333-21.333S161.131,202.667,149.333,202.667z"/>
		</g>
	</g>
</g>
</svg>