<?xml version="1.0" encoding="iso-8859-1"?>
<!-- Uploaded to: SVG Repo, www.svgrepo.com, Generator: SVG Repo Mixer Tools -->
<svg version="1.1" id="Layer_1" xmlns="http://www.w3.org/2000/svg" xmlns:xlink="http://www.w3.org/1999/xlink" 
	 viewBox="0 0 392.727 392.727" xml:space="preserve">
<path style="fill:#FFFFFF;" d="M263.499,260.137c-49.131,0-89.729-37.172-95.095-84.945H21.851v107.055h348.962V175.321h-12.218
	C353.164,222.966,312.63,260.137,263.499,260.137z"/>
<rect x="40.857" y="194.198" style="fill:#56ACE0;" width="310.949" height="69.301"/>
<path style="fill:#FFC10D;" d="M263.499,238.352c40.792,0,74.02-33.228,74.02-74.02s-33.228-74.02-74.02-74.02
	s-74.02,33.228-74.02,74.02S222.707,238.352,263.499,238.352z"/>
<path style="fill:#194F82;" d="M381.737,153.471h-23.014c-5.43-47.709-46.028-84.945-95.16-84.945s-89.729,37.172-95.095,84.945
	H10.925C4.913,153.471,0,158.319,0,164.396v128.84c0,6.012,4.848,10.925,10.925,10.925h20.881v9.115
	c0,6.012,4.848,10.925,10.925,10.925s10.925-4.848,10.925-10.925v-9.115h285.414v9.115c0,6.012,4.848,10.925,10.925,10.925
	c6.012,0,10.925-4.848,10.925-10.925v-9.115h20.881c6.012,0,10.925-4.848,10.925-10.925V164.331
	C392.598,158.384,387.749,153.471,381.737,153.471z M370.812,282.311H21.851v-106.99h146.489
	c5.43,47.709,45.964,84.945,95.095,84.945s89.729-37.301,95.16-84.945h12.154v106.99H370.812z M263.499,90.376
	c40.792,0,74.02,33.228,74.02,74.02s-33.228,74.02-74.02,74.02s-74.02-33.228-74.02-74.02S222.707,90.376,263.499,90.376z"/>
<path style="fill:#FFFFFF;" d="M263.499,147.265c-9.438,0-17.067,7.628-17.067,17.067s7.628,17.067,17.067,17.067
	c9.438,0,17.067-7.628,17.067-17.067S272.937,147.265,263.499,147.265z"/>
<g>
	<path style="fill:#194F82;" d="M263.499,125.479c-21.398,0-38.853,17.455-38.853,38.853s17.455,38.853,38.853,38.853
		s38.853-17.455,38.853-38.853S284.962,125.479,263.499,125.479z M263.499,181.398c-9.438,0-17.067-7.628-17.067-17.067
		s7.628-17.067,17.067-17.067c9.438,0,17.067,7.628,17.067,17.067S272.937,181.398,263.499,181.398z"/>
	<path style="fill:#194F82;" d="M112.873,222.901H60.186c-6.012,0-10.925-4.848-10.925-10.925c0-6.012,4.848-10.925,10.925-10.925
		h52.687c6.012,0,10.925,4.848,10.925,10.925C123.798,218.053,118.885,222.901,112.873,222.901z"/>
	<path style="fill:#194F82;" d="M112.873,256.453H60.186c-6.012,0-10.925-4.848-10.925-10.925c0-6.012,4.848-10.925,10.925-10.925
		h52.687c6.012,0,10.925,4.848,10.925,10.925C123.798,251.604,118.885,256.453,112.873,256.453z"/>
</g>
</svg>