<?xml version="1.0" encoding="iso-8859-1"?>
<!-- Uploaded to: SVG Repo, www.svgrepo.com, Generator: SVG Repo Mixer Tools -->
<svg fill="#000000" height="800px" width="800px" version="1.1" id="Layer_1" xmlns="http://www.w3.org/2000/svg" xmlns:xlink="http://www.w3.org/1999/xlink" 
	 viewBox="0 0 512 512" xml:space="preserve">
<g>
	<g>
		<g>
			<path d="M511.995,338.829V132.239c0-9.864-7.997-17.86-17.86-17.86H279.794c-38.101-19.032-82.534-19.033-120.63,0H17.865
				c-9.864,0-17.86,7.997-17.86,17.86v206.591c0,9.864,7.997,17.86,17.86,17.86h141.3c38.105,19.034,82.534,19.029,120.628,0
				h214.341C503.999,356.69,511.995,348.693,511.995,338.829z M272.88,319.638c-31.303,19.761-70.296,20.08-100.841,3.492
				c-69.546-37.734-69.534-137.465,0-175.193c0.002-0.001,0.004-0.002,0.006-0.004c29.266-15.893,65.618-15.885,94.875,0.004
				C334.611,184.663,336.184,279.679,272.88,319.638z M429.385,276.363h-34.117c-4.933,0-8.93-3.997-8.93-8.93
				c0-4.933,3.997-8.93,8.93-8.93h34.117c4.933,0,8.93,3.997,8.93,8.93C438.315,272.366,434.318,276.363,429.385,276.363z
				 M429.385,212.565h-34.117c-4.933,0-8.93-3.997-8.93-8.93s3.997-8.93,8.93-8.93h34.117c4.933,0,8.93,3.997,8.93,8.93
				S434.318,212.565,429.385,212.565z"/>
			<path d="M219.487,171.102c-35.529,0-64.433,28.904-64.433,64.432c0,35.528,28.904,64.432,64.433,64.432
				c35.528,0,64.431-28.905,64.431-64.432C283.918,200.006,255.015,171.102,219.487,171.102z"/>
			<path d="M500.093,374.55h-93.675c-6.576,0-11.907,5.331-11.907,11.907v7.579c0,9.864,7.997,17.86,17.86,17.86h81.768
				c9.864,0,17.86-7.997,17.86-17.86v-7.579C512,379.881,506.669,374.55,500.093,374.55z"/>
			<path d="M105.582,374.55H11.907C5.331,374.55,0,379.881,0,386.457v7.579c0,9.864,7.997,17.86,17.86,17.86h81.768
				c9.864,0,17.86-7.997,17.86-17.86v-7.579C117.489,379.881,112.158,374.55,105.582,374.55z"/>
		</g>
	</g>
</g>
</svg>