<?xml version="1.0" encoding="iso-8859-1"?>
<!-- Uploaded to: SVG Repo, www.svgrepo.com, Generator: SVG Repo Mixer Tools -->
<!DOCTYPE svg PUBLIC "-//W3C//DTD SVG 1.1//EN" "http://www.w3.org/Graphics/SVG/1.1/DTD/svg11.dtd">
<svg fill="#000000" height="800px" width="800px" version="1.1" id="Capa_1" xmlns="http://www.w3.org/2000/svg" xmlns:xlink="http://www.w3.org/1999/xlink" 
	 viewBox="0 0 297 297" xml:space="preserve">
<path d="M280.333,58.5H272v-1.738c0-5.514-4.129-10.262-9.642-10.262h-28.891C227.953,46.5,223,51.248,223,56.762V58.5h-14v-1.738
	c0-5.514-3.83-10.262-9.344-10.262h-28.891C165.252,46.5,160,51.248,160,56.762V58.5H17.333C7.944,58.5,0,66.111,0,75.5v136
	c0,9.389,7.944,17,17.333,17H26v11.738c0,5.514,5.265,10.262,10.778,10.262h34.978c5.514,0,9.243-4.748,9.243-10.262V228.5h136
	v11.738c0,5.514,4.396,10.262,9.909,10.262h34.98c5.514,0,10.111-4.748,10.111-10.262V228.5h8.333c9.389,0,16.667-7.611,16.667-17
	v-136C297,66.111,289.722,58.5,280.333,58.5z M71.757,245.238L71.757,245.238L71.757,245.238L71.757,245.238z M75.761,195.564
	c-28.556,0-51.704-23.147-51.704-51.703c0-28.555,23.148-51.703,51.704-51.703c28.553,0,51.701,23.147,51.701,51.703
	C127.463,172.417,104.314,195.564,75.761,195.564z M186,168.58c0,8.284-6.716,15-15,15s-15-6.716-15-15v-49.436
	c0-8.284,6.716-15,15-15s15,6.716,15,15V168.58z M200,168.58v-49.436c0-8.284,6.716-15,15-15s15,6.716,15,15v49.436
	c0,8.284-6.716,15-15,15S200,176.864,200,168.58z M261.889,245.238L261.889,245.238L261.889,245.238L261.889,245.238z M274,168.58
	c0,8.284-6.716,15-15,15c-8.284,0-15-6.716-15-15v-49.436c0-8.284,6.716-15,15-15c8.284,0,15,6.716,15,15V168.58z"/>
</svg>