<?xml version="1.0" encoding="iso-8859-1"?>
<!-- Uploaded to: SVG Repo, www.svgrepo.com, Generator: SVG Repo Mixer Tools -->
<svg height="800px" width="800px" version="1.1" id="Layer_1" xmlns="http://www.w3.org/2000/svg" xmlns:xlink="http://www.w3.org/1999/xlink" 
	 viewBox="0 0 512 512" xml:space="preserve">
<path style="fill:#5286FA;" d="M488.727,69.818H256H23.273c-7.23,0-13.689,3.297-17.959,8.47c-1.898,2.299-3.362,4.968-4.268,7.883
	C0.366,88.356,0,90.681,0,93.091v279.271c0,3.213,0.652,6.274,1.829,9.059c0.59,1.392,1.309,2.715,2.146,3.953
	c4.183,6.191,11.264,10.26,19.298,10.26h69.818v23.274c0,12.851,10.42,23.273,23.273,23.273s23.273-10.422,23.273-23.273v-23.274
	H256h116.364v23.274c0,12.851,10.42,23.273,23.273,23.273s23.273-10.422,23.273-23.273v-23.274h69.818
	c12.853,0,23.273-10.42,23.273-23.273V93.091C512,80.238,501.58,69.818,488.727,69.818z"/>
<g>
	<path style="fill:#2E36D2;" d="M93.091,395.635v23.274c0,12.851,10.42,23.273,23.273,23.273s23.273-10.422,23.273-23.273v-23.274
		h-23.273H93.091z"/>
	<path style="fill:#2E36D2;" d="M372.364,395.635v23.274c0,12.851,10.42,23.273,23.273,23.273s23.273-10.422,23.273-23.273v-23.274
		h-23.273H372.364z"/>
</g>
<path style="fill:#00D7DF;" d="M349.091,162.908c-38.499,0-69.818,31.322-69.818,69.818c0,38.499,31.319,69.818,69.818,69.818
	s69.818-31.319,69.818-69.818C418.909,194.23,387.59,162.908,349.091,162.908z M349.091,255.998
	c-12.833,0-23.273-10.44-23.273-23.273c0-12.831,10.44-23.273,23.273-23.273c12.833,0,23.273,10.442,23.273,23.273
	C372.364,245.558,361.923,255.998,349.091,255.998z"/>
<path style="fill:#FFFFFF;" d="M349.091,209.453c-12.833,0-23.273,10.442-23.273,23.273c0,12.833,10.44,23.273,23.273,23.273
	c12.833,0,23.273-10.44,23.273-23.273C372.364,219.895,361.923,209.453,349.091,209.453z"/>
<g>
	<path style="fill:#00D7DF;" d="M209.455,255.998h-93.091c-12.853,0-23.273,10.42-23.273,23.273s10.42,23.273,23.273,23.273h93.091
		c12.853,0,23.273-10.42,23.273-23.273S222.307,255.998,209.455,255.998z"/>
	<path style="fill:#00D7DF;" d="M209.455,162.909h-93.091c-12.853,0-23.273,10.42-23.273,23.273
		c0,12.853,10.42,23.273,23.273,23.273h93.091c12.853,0,23.273-10.42,23.273-23.273
		C232.727,173.329,222.307,162.909,209.455,162.909z"/>
</g>
<path style="fill:#3D6DEB;" d="M23.273,69.818C10.42,69.818,0,80.238,0,93.091v279.271c0,12.853,10.42,23.273,23.273,23.273h69.818
	h23.273h23.273H256V69.818H23.273z M209.455,302.544h-93.091c-12.853,0-23.273-10.42-23.273-23.273s10.42-23.273,23.273-23.273
	h93.091c12.853,0,23.273,10.42,23.273,23.273C232.727,292.124,222.307,302.544,209.455,302.544z M209.455,209.455h-93.091
	c-12.853,0-23.273-10.42-23.273-23.273c0-12.853,10.42-23.273,23.273-23.273h93.091c12.853,0,23.273,10.42,23.273,23.273
	C232.727,199.035,222.307,209.455,209.455,209.455z"/>
</svg>