<?xml version="1.0" encoding="iso-8859-1"?>
<!-- Uploaded to: SVG Repo, www.svgrepo.com, Generator: SVG Repo Mixer Tools -->
<svg xmlns="http://www.w3.org/2000/svg" xmlns:xlink="http://www.w3.org/1999/xlink" version="1.1" id="Capa_1"  viewBox="0 0 505 505" xml:space="preserve" width="512" height="512">
<g>
	<polyline style="fill:#B1DCEE;" points="157.503,376.238 7.5,376.238 7.5,99.065 497.5,99.065 497.5,376.238 403.229,376.238  "/>
	<path style="fill:#FFA317;" d="M177.504,376.238H497.5v-75.1h-94.298c-14.585,12.461-33.5,20.002-54.188,20.002   s-39.602-7.54-54.188-20.002H7.5v75.1h150.002"/>
	<rect x="56.995" y="376.238" style="fill:#5A9DEE;" width="39.596" height="29.697"/>
	<rect x="408.409" y="376.238" style="fill:#5A9DEE;" width="39.596" height="29.697"/>
	<circle style="fill:#5A9DEE;" cx="349.015" cy="237.651" r="83.488"/>
	<path style="fill:#B1DCEE;" d="M349.015,291.14c-29.493,0-53.488-23.995-53.488-53.488c0-29.494,23.995-53.488,53.488-53.488   c29.493,0,53.488,23.995,53.488,53.488C402.503,267.145,378.508,291.14,349.015,291.14z"/>
	<g>
		<path style="fill:#214245;" d="M0,91.565v202.072v90.1h49.495v29.697h54.596v-29.697h53.411h0.001v-15h-0.001h-53.411H49.495H15    v-60.1h277.127c1.305,1.046,2.645,2.04,3.999,3.009c0.357,0.255,0.716,0.504,1.075,0.754c0.665,0.461,1.334,0.916,2.011,1.359    c0.563,0.37,1.129,0.733,1.7,1.09c0.31,0.192,0.615,0.39,0.927,0.579c0.9,0.548,1.813,1.075,2.732,1.592    c0.188,0.106,0.377,0.212,0.566,0.317c1.029,0.569,2.07,1.118,3.123,1.648c0.023,0.012,0.047,0.023,0.07,0.035    c10.043,5.042,21.142,8.277,32.869,9.28c0.051,0.004,0.103,0.009,0.154,0.014c1.188,0.099,2.383,0.176,3.584,0.229    c0.174,0.008,0.348,0.013,0.522,0.02c1.18,0.046,2.363,0.076,3.555,0.076c1.191,0,2.375-0.03,3.555-0.076    c0.174-0.007,0.348-0.012,0.521-0.02c1.201-0.053,2.396-0.13,3.584-0.229c0.052-0.005,0.103-0.01,0.154-0.014    c11.728-1.003,22.826-4.238,32.869-9.28c0.023-0.012,0.047-0.023,0.07-0.035c1.053-0.53,2.094-1.079,3.123-1.648    c0.189-0.104,0.378-0.211,0.566-0.317c0.92-0.517,1.833-1.044,2.732-1.592c0.311-0.189,0.617-0.386,0.927-0.579    c0.571-0.357,1.138-0.72,1.7-1.09c0.677-0.443,1.346-0.897,2.011-1.359c0.359-0.25,0.719-0.5,1.075-0.754    c1.355-0.969,2.694-1.963,3.999-3.009H490v60.1h-34.495h-52.275h-2.32H177.504v15h223.405v29.697h54.596v-29.697H505v-90.1V91.565    H0z M89.091,383.738v14.697H64.495v-14.697H89.091z M440.505,398.435h-24.596v-14.697h24.596V398.435z M397.475,296.134    c-0.134,0.11-0.269,0.219-0.402,0.328c-0.773,0.634-1.56,1.251-2.358,1.855c-0.196,0.147-0.393,0.293-0.59,0.439    c-0.73,0.54-1.472,1.065-2.221,1.58c-0.276,0.19-0.553,0.378-0.832,0.564c-0.662,0.442-1.335,0.87-2.012,1.292    c-0.372,0.231-0.743,0.464-1.119,0.688c-0.57,0.342-1.151,0.67-1.732,0.998c-0.484,0.272-0.967,0.549-1.457,0.811    c-0.436,0.234-0.882,0.453-1.323,0.679c-0.637,0.324-1.272,0.652-1.917,0.958c-0.153,0.073-0.311,0.138-0.464,0.21    c-3.839,1.787-7.819,3.253-11.901,4.377c-0.094,0.026-0.186,0.054-0.279,0.08c-0.899,0.244-1.805,0.464-2.713,0.675    c-0.248,0.057-0.494,0.117-0.742,0.172c-0.818,0.181-1.643,0.345-2.467,0.499c-0.365,0.068-0.731,0.134-1.099,0.196    c-0.743,0.128-1.489,0.246-2.238,0.351c-0.489,0.069-0.98,0.129-1.473,0.188c-0.653,0.079-1.307,0.157-1.963,0.219    c-0.666,0.063-1.337,0.108-2.007,0.153c-0.508,0.035-1.015,0.078-1.523,0.102c-1.203,0.057-2.41,0.092-3.627,0.092    c-1.217,0-2.424-0.035-3.627-0.092c-0.509-0.024-1.016-0.067-1.523-0.102c-0.67-0.045-1.341-0.09-2.007-0.153    c-0.656-0.063-1.31-0.14-1.963-0.219c-0.492-0.06-0.983-0.119-1.473-0.188c-0.749-0.105-1.495-0.223-2.238-0.351    c-0.367-0.063-0.733-0.128-1.099-0.196c-0.824-0.154-1.648-0.318-2.467-0.499c-0.248-0.055-0.494-0.115-0.742-0.172    c-0.908-0.211-1.813-0.431-2.713-0.675c-0.094-0.025-0.186-0.054-0.279-0.08c-4.082-1.124-8.062-2.59-11.9-4.377    c-0.154-0.072-0.311-0.138-0.465-0.21c-0.645-0.306-1.28-0.634-1.917-0.958c-0.441-0.226-0.887-0.445-1.323-0.679    c-0.49-0.262-0.973-0.538-1.457-0.811c-0.581-0.328-1.162-0.655-1.732-0.998c-0.376-0.224-0.747-0.457-1.119-0.688    c-0.677-0.421-1.35-0.849-2.012-1.292c-0.279-0.185-0.556-0.374-0.832-0.564c-0.749-0.515-1.49-1.04-2.221-1.58    c-0.197-0.146-0.394-0.292-0.59-0.439c-0.799-0.604-1.585-1.221-2.358-1.855c-0.134-0.109-0.269-0.218-0.402-0.328    c-16.806-13.95-27.528-34.986-27.528-58.483c0-41.9,34.088-75.988,75.988-75.988s75.988,34.088,75.988,75.988    C425.003,261.148,414.28,282.185,397.475,296.134z M420.69,293.638c12.094-15.449,19.313-34.89,19.313-55.986    c0-50.171-40.817-90.988-90.988-90.988s-90.988,40.817-90.988,90.988c0,21.096,7.219,40.537,19.313,55.986H15V106.565h475v187.072    H420.69z"/>
		<rect x="177.505" y="331.188" style="fill:#214245;" width="117.295" height="15"/>
		<path style="fill:#214245;" d="M349.015,176.663c-33.629,0-60.988,27.359-60.988,60.988s27.359,60.988,60.988,60.988    s60.988-27.359,60.988-60.988S382.643,176.663,349.015,176.663z M349.015,283.64c-25.358,0-45.988-20.63-45.988-45.988    s20.63-45.988,45.988-45.988s45.988,20.63,45.988,45.988S374.373,283.64,349.015,283.64z"/>
		<path style="fill:#214245;" d="M349.015,206.663v15c8.816,0,15.988,7.172,15.988,15.988h15    C380.003,220.564,366.102,206.663,349.015,206.663z"/>
		<rect x="96.591" y="230.151" style="fill:#214245;" width="133.578" height="15"/>
		<rect x="96.591" y="200.148" style="fill:#214245;" width="133.578" height="15"/>
		<rect x="96.591" y="260.154" style="fill:#214245;" width="133.578" height="15"/>
	</g>
</g>















</svg>